<svg fill="none" height="370" viewBox="0 0 369 370" width="369" xmlns="http://www.w3.org/2000/svg"><path d="m203.66 211.98c-5.469 3.98-12.203 6.329-19.486 6.329l-.001 151.021c38.893 0 76.788-12.312 108.254-35.173z" fill="#43576b"/><path d="m203.66 211.98c-5.469 3.98-12.203 6.329-19.486 6.329l-.001 151.021c38.893 0 76.788-12.312 108.254-35.173z" stroke="#000"/><path d="m184.171 218.31c-7.282 0-14.016-2.349-19.486-6.33l-88.7675 122.178c31.4655 22.861 69.3605 35.174 108.2535 35.174z" fill="#386572"/><path d="m184.171 218.31c-7.282 0-14.016-2.349-19.486-6.33l-88.7675 122.178c31.4655 22.861 69.3605 35.174 108.2535 35.174z" stroke="#000"/><path d="m164.685 211.98c-5.595-4.073-9.866-9.853-12.049-16.575l-143.62282 46.666c12.01872 36.99 35.43922 69.226 66.90462 92.087z" fill="#2d737a"/><path d="m164.685 211.98c-5.595-4.073-9.866-9.853-12.049-16.575l-143.62282 46.666c12.01872 36.99 35.43922 69.226 66.90462 92.087z" stroke="#000"/><path d="m9.01408 128.247c-12.01876 36.99-12.01877 76.835-.00003 113.825l143.62295-46.666c-1.048-3.227-1.614-6.671-1.614-10.247s.566-7.019 1.614-10.246z" fill="#228181"/><path d="m9.01408 128.247c-12.01876 36.99-12.01877 76.835-.00003 113.825l143.62295-46.666c-1.048-3.227-1.614-6.671-1.614-10.247s.566-7.019 1.614-10.246z" stroke="#000"/><path d="m75.9179 36.1606c-31.4655 22.861-54.886 55.0965-66.90472 92.0864l143.62282 46.666c2.182-6.722 6.454-12.502 12.049-16.575z" fill="#169088"/><path d="m75.9179 36.1606c-31.4655 22.861-54.886 55.0965-66.90472 92.0864l143.62282 46.666c2.182-6.722 6.454-12.502 12.049-16.575z" stroke="#000"/><path d="m184.171.98584c-38.893 0-76.788 12.31286-108.2535 35.17386l88.7675 122.1773c5.469-3.981 12.204-6.329 19.486-6.33z" fill="#0c9d90"/><path d="m184.157.98584c38.912-.002967 76.825 12.31846 108.3 35.19686l-88.792 122.1573c-5.471-3.983-12.207-6.333-19.492-6.333-.002 0 .001 0 0 0z" fill="#00ac97"/></svg>