<svg width="107" height="27" viewBox="0 0 107 27" fill="none" xmlns="http://www.w3.org/2000/svg">
	<path
		d="M29.9275 5.12191V5.76977V8.61038H44.6289V5.12191H29.9275ZM33.416 14.5408H43.1588V11.0523H33.416L29.9275 11.0274V18.0791V18.7269V21.5675H44.6289V18.0791H33.416V14.5408ZM57.4224 5.37109C57.4224 5.37109 57.1981 5.29633 56.8492 5.22158C56.5004 5.17175 56.1266 5.12191 56.1266 5.12191H47.1314V5.76977V8.61038H55.2296V8.63529H55.8027L55.8276 8.61038C55.8525 8.61038 55.8775 8.61038 55.9024 8.61038C56.5752 8.61038 57.0984 9.15856 57.0984 9.80642C57.0984 10.4792 56.5752 11.0025 55.9024 11.0025H50.6198H47.1314V21.5675H50.6198V14.5159H56.2512C56.2512 14.5159 56.3509 14.5159 56.9738 14.3663C57.5968 14.2168 57.6217 14.1919 57.6217 14.1919C58.2696 13.9178 58.8676 13.5191 59.341 12.9959C60.1633 12.1487 60.5869 11.0025 60.5869 9.80642C60.5869 7.76318 59.2912 6.01895 57.4224 5.37109ZM63.0942 5.09699V21.5675H66.5827V5.09699H63.0942ZM81.7883 15.0142L81.6138 15.388C80.8165 17.0325 79.147 18.0791 77.328 18.0791C75.0854 18.0791 73.1169 16.4843 72.6684 14.2916C72.5937 13.9926 72.5688 13.6437 72.5688 13.3198C72.5688 12.9959 72.5937 12.6969 72.6684 12.3729C73.092 10.1553 75.0605 8.56054 77.328 8.56054C79.2467 8.56054 80.966 9.70675 81.7135 11.451L81.8879 11.8497H85.501L85.2518 11.0274C84.7784 9.33299 83.7318 7.81301 82.3365 6.74156C80.8912 5.64518 79.147 5.07208 77.328 5.07208C75.3346 5.07208 73.391 5.79469 71.896 7.11532C70.4009 8.41104 69.4291 10.2051 69.155 12.1487C69.1052 12.5474 69.0803 12.9211 69.0803 13.3198C69.0803 13.7185 69.1052 14.1421 69.155 14.5408C69.4291 16.4843 70.4258 18.2535 71.896 19.5492C73.416 20.8698 75.3346 21.5675 77.328 21.5675C79.0972 21.5675 80.7916 21.0193 82.2368 19.9728C83.6322 18.9263 84.6538 17.5309 85.1771 15.8863L85.4512 15.0142H81.7883ZM87.3967 20.5459L86.6492 21.5675H90.9848L91.1842 21.3184L93.5513 18.0791L91.3835 15.1388L87.3967 20.5459ZM102.721 20.5459L97.2391 13.0706L102.347 6.16845L103.095 5.12191H98.7591L98.5598 5.37109L95.0713 10.1304L91.5828 5.37109L91.3835 5.12191H87.0229L87.7954 6.14353L92.9035 13.0706V13.0955L95.0713 16.0358L96.7408 18.3033L98.9585 21.3184L99.1578 21.5675H103.493L102.721 20.5459Z"
		fill="url(#paint0_linear)" />
	<path fill-rule="evenodd" clip-rule="evenodd"
		d="M12.2326 10.2942L12.2326 10.2942V26.9121L24.4652 21.142V4.52417L21.5802 5.88502V18.4921L12.2326 22.9013V10.2942ZM2.88507 5.88506L0 4.52418V21.142L12.2326 26.9121V22.9013L2.88507 18.4921V5.88506Z"
		fill="url(#paint1_linear)" />
	<path fill-rule="evenodd" clip-rule="evenodd"
		d="M12.2325 3.99999L20.9036 0V2.68944L12.2326 6.77953V6.77956L12.2325 6.77956L3.56152 2.68945V2.86102e-06L12.2325 3.99999Z"
		fill="url(#paint2_linear)" />
	<path
		d="M15.839 10.7475L14.6318 11.9562C14.8951 12.3887 15.0378 12.8877 15.0378 13.42C15.0378 14.9725 13.7978 16.2256 12.2614 16.2256C11.7236 16.2256 11.2298 16.0704 10.8128 15.8153L9.61658 17.0351C10.3518 17.5896 11.2737 17.9222 12.2723 17.9222C14.7306 17.9222 16.7169 15.9151 16.7169 13.4311C16.7169 12.422 16.3876 11.4905 15.839 10.7475Z"
		fill="white" />
	<path
		d="M9.48448 13.4312C9.48448 11.8787 10.7246 10.6256 12.2609 10.6256C12.7987 10.6256 13.2925 10.7809 13.7095 11.0359L14.9167 9.8161C14.1814 9.26163 13.2596 8.92896 12.2609 8.92896C9.80273 8.92896 7.81641 10.9361 7.81641 13.4201C7.81641 14.4293 8.14563 15.3496 8.69434 16.1037L9.89052 14.895C9.63812 14.4625 9.48448 13.9635 9.48448 13.4312Z"
		fill="white" />
	<path
		d="M17.8031 8.70711C17.9568 9.49447 17.2763 10.182 16.4972 10.0268C16.0583 9.93805 15.707 9.58319 15.6193 9.13961C15.4766 8.36334 16.146 7.67578 16.9362 7.83104C17.3642 7.90867 17.7263 8.27462 17.8031 8.70711Z"
		fill="white" />
	<path
		d="M8.8921 17.7006C9.04574 18.4879 8.36534 19.1755 7.58617 19.0203C7.14721 18.9315 6.79603 18.5767 6.70824 18.1331C6.5546 17.3457 7.235 16.6693 8.01417 16.8135C8.45313 16.9022 8.80431 17.257 8.8921 17.7006Z"
		fill="white" />
	<path d="M63.1357 24.2062H104.971L106.79 26.912H63.1357V24.2062Z" fill="url(#paint3_linear)" />
	<defs>
		<linearGradient id="paint0_linear" x1="67.1042" y1="1.56754" x2="67.1042" y2="26.3028"
			gradientUnits="userSpaceOnUse">
			<stop stop-color="white" />
			<stop offset="1" stop-color="#D4D9E3" />
		</linearGradient>
		<linearGradient id="paint1_linear" x1="-2.58767" y1="26.912" x2="28.1505" y2="26.5948"
			gradientUnits="userSpaceOnUse">
			<stop stop-color="#3B90D7" />
			<stop offset="1" stop-color="#38CAAC" />
		</linearGradient>
		<linearGradient id="paint2_linear" x1="1.72727" y1="6.77956" x2="23.5055" y2="6.25348"
			gradientUnits="userSpaceOnUse">
			<stop stop-color="#3B90D7" />
			<stop offset="1" stop-color="#38CAAC" />
		</linearGradient>
		<linearGradient id="paint3_linear" x1="58.5185" y1="26.912" x2="112.127" y2="18.7445"
			gradientUnits="userSpaceOnUse">
			<stop stop-color="#3B90D7" />
			<stop offset="1" stop-color="#38CAAC" />
		</linearGradient>
	</defs>
</svg>
